<svg width="512" height="512" xmlns="http://www.w3.org/2000/svg">

 <g>
  <title>background</title>
  <rect fill="none" id="canvas_background" height="402" width="582" y="-1" x="-1"/>
 </g>
 <g>
  <title>Layer 1</title>
  <g id="svg_1">
   <path id="svg_2" d="m495.9,425.3l-479.8,0c-5.2,0 -10.1,2.9 -12.5,7.6c-2.4,4.7 -2.1,10.3 0.9,14.6l39,56.4c2.6,3.8 7,6.1 11.6,6.1l401.7,0c4.6,0 9,-2.3 11.6,-6.1l39,-56.4c3,-4.3 3.3,-9.9 0.9,-14.6c-2.3,-4.7 -7.2,-7.6 -12.4,-7.6zm-46.5,56.5l-386.8,0l-19.6,-28.2l426,0l-19.6,28.2z"/>
   <path id="svg_3" d="m158.3,122c7.8,0 14.1,-6.3 14.1,-14.1l0,-64.5c0,-7.8 -6.3,-14.1 -14.1,-14.1c-7.8,0 -14.1,6.3 -14.1,14.1l0,64.5c0,7.8 6.3,14.1 14.1,14.1z"/>
   <path id="svg_4" d="m245.1,94.7c7.8,0 14.1,-6.3 14.1,-14.1l0,-64.5c0,-7.8 -6.3,-14.1 -14.1,-14.1c-7.8,0 -14.1,6.3 -14.1,14.1l0,64.5c0,7.8 6.3,14.1 14.1,14.1z"/>
   <path id="svg_5" d="m331.9,122c7.8,0 14.1,-6.3 14.1,-14.1l0,-64.5c0,-7.8 -6.3,-14.1 -14.1,-14.1s-14.1,6.3 -14.1,14.1l0,64.5c0,7.8 6.3,14.1 14.1,14.1z"/>
   <path id="svg_6" d="m9.6,385.2c5.3,2.8 11.8,1.9 16.2,-2.2l50.6,-47.7c56.7,46.5 126.6,71.9 198.3,71.9c0,0 0,0 0,0c87.5,0 169.7,-36.6 231.4,-103.2c5,-5.4 5,-13.8 0,-19.2c-61.8,-66.5 -144,-103.2 -231.4,-103.2c-72,0 -142.2,25.6 -199,72.5l-50,-47.1c-4.4,-4.1 -10.9,-5 -16.2,-2.2c-5.3,2.8 -8.3,8.7 -7.4,14.6l11.6,75l-11.5,76.2c-0.9,5.9 2,11.8 7.4,14.6zm371.3,-154.4c34.9,14.3 67.2,35.7 95.3,63.6c-10.1,10 -20.8,19.2 -31.9,27.5c-22.4,-3.3 -29.6,-8.8 -30.7,-9.7c-4,-5.7 -11.8,-7.7 -18.1,-4.4c-6.9,3.6 -9.5,12.2 -5.9,19.1c1.9,3.5 7.3,10.3 22.4,16c-10.1,5.7 -20.5,10.7 -31.1,15.1c-28.5,-37.8 -28.5,-89.4 0,-127.2zm-344.6,24.8l29.4,27.7c5.3,5 13.6,5.1 19.1,0.3c53.2,-47.6 120.7,-73.7 190,-73.7c26.9,0 53.2,3.9 78.5,11.3c-29.3,44.6 -29.3,102 0,146.6c-25.3,7.4 -51.6,11.3 -78.5,11.3c-69,0 -136.3,-26 -189.4,-73.2c-2.7,-2.4 -13.4,-6.3 -19.1,0.3l-30.1,28.3l5.7,-40c0.3,-1.5 -5.6,-38.9 -5.6,-38.9z"/>
   <circle id="svg_7" r="14.1" cy="273.8" cx="398.8"/>
  </g>
 </g>
</svg>